<svg width="42" height="42" viewBox="0 0 42 42" fill="none" xmlns="http://www.w3.org/2000/svg">
<path d="M0 21C-3.63102e-07 25.1534 1.23163 29.2135 3.53914 32.667C5.84665 36.1204 9.1264 38.812 12.9636 40.4015C16.8009 41.9909 21.0233 42.4068 25.0969 41.5965C29.1705 40.7862 32.9123 38.7861 35.8492 35.8492C38.7861 32.9123 40.7862 29.1705 41.5965 25.0969C42.4068 21.0233 41.9909 16.8009 40.4015 12.9636C38.812 9.1264 36.1204 5.84665 32.667 3.53914C29.2135 1.23163 25.1534 3.13574e-07 21 0L21 21L0 21Z" fill="#1ECE7A"/>
<path d="M33.1344 21.5C33.1344 18.2817 31.856 15.1952 29.5803 12.9196C27.3047 10.6439 24.2182 9.36548 21 9.36548C17.7817 9.36548 14.6952 10.6439 12.4196 12.9196C10.1439 15.1952 8.86548 18.2817 8.86548 21.5L21 21.5H33.1344Z" fill="#1C57C9"/>
</svg>
