<svg width="55" height="55" viewBox="0 0 55 55" fill="none" xmlns="http://www.w3.org/2000/svg">
<rect opacity="0.6" y="-0.000244141" width="55" height="55" rx="24" fill="#C5D7F2"/>
<path fill-rule="evenodd" clip-rule="evenodd" d="M41.0995 26.1099C42.8402 26.3583 44.2076 27.7101 44.4588 29.4308C44.7717 31.5742 43.2678 33.5628 41.0995 33.8721C38.9313 34.1815 36.9199 32.6947 36.6069 30.5512C36.294 28.4077 37.798 26.4193 39.9662 26.1099V25.0932C39.9662 22.8995 38.3138 21.1158 36.2829 21.1158C34.3098 21.1158 32.6563 22.8457 32.5997 24.9716V35.9843C32.5997 40.1258 29.4224 43.4998 25.5164 43.4998C21.6105 43.4998 18.4332 40.1297 18.4332 35.9843V35.0281C17.6116 35.0281 16.7332 34.4393 16.7332 32.7873V31.3784C13.0981 30.4614 10.5 27.3731 10.5 23.8692V22.704H11.6333V15.4215C11.6371 14.0595 12.6314 12.8976 13.9895 12.6682C14.147 12.1875 14.5141 11.8019 14.9898 11.6171C15.8677 11.2762 16.859 11.7034 17.2039 12.5712C17.5488 13.4391 17.1167 14.4192 16.2388 14.7601C15.3608 15.101 14.3695 14.6739 14.0246 13.806C13.285 14.0028 12.7699 14.6644 12.7666 15.4215V22.704H14.4666V23.8882C14.5102 25.8352 15.8286 27.5282 17.7215 28.0677C18.7354 28.3858 19.8241 28.3858 20.8381 28.0677C22.7331 27.53 24.0546 25.8367 24.0998 23.8882V22.704H25.2331L25.2076 15.4165C25.2017 14.6703 24.6988 14.0174 23.9729 13.8133C23.7864 14.2719 23.4041 14.6255 22.9287 14.7789C22.0409 15.0654 21.0863 14.5862 20.7965 13.7086C20.5067 12.8309 20.9915 11.8872 21.8792 11.6007C22.767 11.3142 23.7216 11.7934 24.0114 12.671C25.3548 12.9113 26.3344 14.0636 26.3426 15.4131L26.3664 22.704H27.4997V23.872C27.4997 27.372 24.9033 30.4592 21.2665 31.3784V32.7873C21.2665 34.4393 20.3882 35.0281 19.5665 35.0281V35.9843C19.5665 39.5095 22.2355 42.3794 25.5164 42.3794C28.7974 42.3794 31.4663 39.5135 31.4663 35.9843V24.9447L31.4992 24.9391H31.4663C31.544 22.2121 33.7035 19.9938 36.2829 19.9938C38.9389 19.9938 41.0995 22.2816 41.0995 25.0915V26.1099ZM21.8332 13.1808C21.8332 13.4902 22.0869 13.741 22.3998 13.741C22.7128 13.741 22.9665 13.4902 22.9665 13.1808C22.9665 12.8714 22.7128 12.6206 22.3998 12.6206C22.0869 12.6206 21.8332 12.8714 21.8332 13.1808ZM16.1666 13.1808C16.1666 12.8714 15.9129 12.6206 15.5999 12.6206C15.287 12.6206 15.0333 12.8714 15.0333 13.1808C15.0333 13.4902 15.287 13.741 15.5999 13.741C15.9129 13.741 16.1666 13.4902 16.1666 13.1808ZM11.6333 23.8243V23.8692C11.6333 26.9855 14.0631 29.7276 17.4132 30.3897C17.6718 30.4425 17.933 30.4816 18.1958 30.5068C18.9941 30.5856 19.7998 30.5466 20.5865 30.3908C23.9366 29.7276 26.3664 26.9855 26.3664 23.8692V23.8243H25.2331V23.8882C25.1898 26.3238 23.5498 28.4487 21.1849 29.1332C19.9463 29.5209 18.6167 29.5209 17.3781 29.1332C15.0143 28.4478 13.3758 26.323 13.3333 23.8882V23.8243H11.6333ZM17.8666 32.7873C17.8666 33.1234 17.9232 33.9077 18.4332 33.9077H19.566C20.0759 33.9077 20.1326 33.1234 20.1326 32.7873V31.5986C20.1086 31.6016 20.084 31.6035 20.0595 31.6054C20.0384 31.607 20.0173 31.6086 19.9966 31.6109C19.9568 31.6151 19.9162 31.6186 19.8764 31.6219C19.8578 31.6235 19.8395 31.625 19.8215 31.6266C19.5552 31.6501 19.2855 31.6664 19.0135 31.6664H18.9851C18.7126 31.6658 18.4423 31.6501 18.1742 31.6266C18.16 31.6253 18.1458 31.6241 18.1316 31.6229C18.0892 31.6192 18.0467 31.6155 18.0042 31.6109C17.986 31.6091 17.9676 31.6077 17.9492 31.6063C17.9215 31.6041 17.8938 31.602 17.8666 31.5986V32.7873ZM37.6996 29.9864C37.6996 31.5333 38.9681 32.7873 40.5329 32.7873C42.0968 32.7855 43.3643 31.5326 43.3661 29.9864C43.3661 28.4395 42.0976 27.1855 40.5329 27.1855C38.9681 27.1855 37.6996 28.4395 37.6996 29.9864ZM38.833 29.9864C38.833 29.0582 39.5941 28.3058 40.533 28.3058C41.4719 28.3058 42.233 29.0582 42.233 29.9864C42.233 30.9146 41.4719 31.667 40.533 31.667C39.5941 31.667 38.833 30.9146 38.833 29.9864ZM39.9663 29.9864C39.9663 30.2958 40.22 30.5466 40.533 30.5466C40.8459 30.5466 41.0996 30.2958 41.0996 29.9864C41.0996 29.677 40.8459 29.4262 40.533 29.4262C40.22 29.4262 39.9663 29.677 39.9663 29.9864Z" fill="#2682D6"/>
</svg>
