<svg width="55" height="55" viewBox="0 0 55 55" fill="none" xmlns="http://www.w3.org/2000/svg">
<rect opacity="0.6" y="-0.000244141" width="55" height="55" rx="24" fill="#F1C1C9"/>
<path fill-rule="evenodd" clip-rule="evenodd" d="M26.8359 12.1664C26.8359 11.7983 27.1333 11.4998 27.5 11.4998C27.8667 11.4998 28.1641 11.7983 28.1641 12.1664V17.4998C28.1641 17.8679 27.8667 18.1664 27.5 18.1664C27.1333 18.1664 26.8359 17.8679 26.8359 17.4998V12.1664ZM20.4567 20.1523L16.7001 16.381C16.4407 16.1207 16.0203 16.1207 15.7609 16.381C15.5016 16.6413 15.5016 17.0635 15.7609 17.3239L19.5175 21.0952C19.7769 21.3555 20.1973 21.3555 20.4567 21.0952C20.716 20.8349 20.716 20.4127 20.4567 20.1523ZM38.3002 16.3811C38.5597 16.1208 38.98 16.1208 39.2394 16.3811C39.4988 16.6414 39.4988 17.0635 39.2394 17.3239L35.4828 21.0953C35.2233 21.3555 34.8031 21.3556 34.5436 21.0953C34.2843 20.8349 34.2843 20.4127 34.5436 20.1524L38.3002 16.3811ZM37.3317 38.1664H38.125C39.2234 38.1664 40.1171 39.0636 40.1171 40.1664V42.8331C40.1171 43.2012 39.8198 43.4998 39.4531 43.4998H15.5469C15.1801 43.4998 14.8828 43.2012 14.8828 42.8331V40.1664C14.8828 39.0636 15.7765 38.1664 16.875 38.1664H17.6683L19.8304 26.0006C20.2324 23.7781 22.1557 22.1664 24.4041 22.1664H30.5958C32.8438 22.1664 34.7674 23.778 35.1698 25.9984L37.3317 38.1664ZM24.4041 23.4998C22.7982 23.4998 21.4243 24.6509 21.1375 26.2368L19.0174 38.1664H35.9826L33.8627 26.2348C33.5757 24.651 32.2016 23.4998 30.5958 23.4998H24.4041ZM16.2109 42.1664H38.789V40.1664C38.789 39.7988 38.4911 39.4998 38.125 39.4998H16.875C16.5088 39.4998 16.2109 39.7988 16.2109 40.1664V42.1664ZM31.4844 28.1664C31.4844 27.7984 31.7819 27.4998 32.1484 27.4998C32.515 27.4998 32.8125 27.7984 32.8125 28.1664C32.8125 28.5344 32.515 28.8331 32.1484 28.8331C31.7819 28.8331 31.4844 28.5344 31.4844 28.1664ZM34.2893 36.0473L33.3151 30.664C33.2496 30.3016 32.9033 30.061 32.5431 30.1272C32.1822 30.193 31.9428 30.5399 32.0084 30.9022L32.9825 36.2856C33.0486 36.6506 33.3971 36.888 33.7546 36.8224C34.1155 36.7565 34.3549 36.4095 34.2893 36.0473ZM38.125 27.4998H43.8359C44.2026 27.4998 44.5 27.7983 44.5 28.1664C44.5 28.5346 44.2026 28.8331 43.8359 28.8331H38.125C37.7583 28.8331 37.4609 28.5346 37.4609 28.1664C37.4609 27.7983 37.7583 27.4998 38.125 27.4998ZM16.875 27.4998H11.1641C10.7973 27.4998 10.5 27.7983 10.5 28.1664C10.5 28.5346 10.7973 28.8331 11.1641 28.8331H16.875C17.2417 28.8331 17.539 28.5346 17.539 28.1664C17.539 27.7983 17.2417 27.4998 16.875 27.4998Z" fill="#D62642"/>
</svg>
