<svg width="55" height="55" viewBox="0 0 55 55" fill="none" xmlns="http://www.w3.org/2000/svg">
<rect opacity="0.6" x="0.00012207" y="-0.000244141" width="55" height="55" rx="24" fill="#FAE3AF"/>
<path fill-rule="evenodd" clip-rule="evenodd" d="M43.7956 9.49976H35.6478C34.6852 9.49976 33.9019 10.2813 33.9019 11.2417V15.8869C33.9019 16.8472 34.6852 17.6288 35.6478 17.6288H37.2023L36.6005 21.1307L42.2166 17.6288H43.7956C44.7582 17.6288 45.5415 16.8472 45.5415 15.8869V11.2417C45.5415 10.2813 44.7582 9.49976 43.7956 9.49976ZM44.3775 15.8869C44.3775 16.2068 44.1162 16.4675 43.7956 16.4675H41.8826L38.1864 18.7721L38.5827 16.4675H35.6478C35.3271 16.4675 35.0658 16.2068 35.0658 15.8869V11.2417C35.0658 10.9218 35.3271 10.661 35.6478 10.661H43.7956C44.1162 10.661 44.3775 10.9218 44.3775 11.2417V15.8869ZM38.7826 40.8547L37.4353 36.8215C36.9644 35.4134 35.7632 34.3741 34.299 34.1081L30.4096 33.4021V33.1013C31.0864 32.7094 31.6754 32.185 32.1445 31.5643H33.3195C34.2821 31.5643 35.0654 30.7828 35.0654 29.8224V22.8547C35.0654 18.6926 31.6713 15.3063 27.4997 15.3063C23.328 15.3063 19.9339 18.6926 19.9339 22.8547V26.9192C19.9339 28.0387 20.7318 28.9752 21.7898 29.1936C22.1163 30.8623 23.1616 32.2745 24.5897 33.1013V33.4021L20.6998 34.1081C19.2361 34.3741 18.0343 35.4134 17.564 36.8215L17.3313 37.5189L15.349 35.5412C15.122 35.3147 15.122 34.946 15.349 34.7196L17.6479 32.4266L13.333 28.1217L10.7351 30.7137C9.96568 31.4813 9.54199 32.5021 9.54199 33.5879C9.54199 34.6737 9.96568 35.6939 10.7351 36.4615L18.6006 44.3089C19.3699 45.0765 20.3931 45.4998 21.4814 45.4998C22.5697 45.4998 23.5922 45.0765 24.3436 44.3263L27.1784 41.7349L26.2944 40.8547H38.7826ZM33.9015 29.8224C33.9015 30.1429 33.6402 30.403 33.3195 30.403H32.83C32.9988 30.0192 33.1269 29.6145 33.2095 29.1936C33.4586 29.1419 33.6879 29.0432 33.9015 28.9189V29.8224ZM33.3195 27.9191V25.9193C33.6658 26.1208 33.9015 26.4912 33.9015 26.9192C33.9015 27.3471 33.6658 27.7176 33.3195 27.9191ZM21.6798 27.9191C21.3335 27.7176 21.0978 27.3471 21.0978 26.9192C21.0978 26.4912 21.3335 26.1208 21.6798 25.9193V27.9191ZM21.6798 24.016V24.679C21.4726 24.733 21.2783 24.8143 21.0978 24.9194V22.8547C21.0978 19.333 23.9699 16.4676 27.4997 16.4676C31.0294 16.4676 33.9015 19.333 33.9015 22.8547V24.9194C33.7211 24.8143 33.5267 24.7325 33.3195 24.679V24.016H32.7375C31.0166 24.016 29.3987 23.347 28.1812 22.1329L27.4997 21.453L26.8182 22.1329C25.6006 23.347 23.9827 24.016 22.2618 24.016H21.6798ZM22.8438 28.0805V25.1552C24.5915 25.024 26.221 24.3045 27.4997 23.0916C28.7783 24.3045 30.4078 25.0245 32.1555 25.1552V28.0805C32.1555 28.927 31.9239 29.719 31.5258 30.403H27.4997V31.5643H30.569C29.7484 32.2849 28.6758 32.7256 27.4997 32.7256C24.9325 32.7256 22.8438 30.6417 22.8438 28.0805ZM29.2456 33.6192V33.6465L27.4997 35.3885L25.7537 33.6465V33.6192C26.3054 33.7923 26.8915 33.8869 27.4997 33.8869C28.1078 33.8869 28.6939 33.7923 29.2456 33.6192ZM18.6675 37.1885C19.0033 36.1828 19.8617 35.4401 20.9075 35.2497L24.9756 34.5123L27.4997 37.0305L30.0231 34.5129L34.0906 35.2503C35.1364 35.4407 35.9949 36.1828 36.3307 37.1891L37.1681 39.6934H25.1304L22.8636 37.4318L20.3448 39.705C20.1254 39.9251 19.7418 39.9251 19.5218 39.705L18.2508 38.4369L18.6675 37.1885ZM13.3324 29.7638L16.0014 32.4266L15.3694 33.0572L12.7004 30.3943L13.3324 29.7638ZM23.5375 43.4891C22.9881 44.036 22.2572 44.3385 21.4802 44.3385C20.7033 44.3385 19.9723 44.036 19.4223 43.4879L11.5568 35.6411C11.0074 35.0929 10.7048 34.3636 10.7048 33.5885C10.7048 32.8127 11.0074 32.0834 11.5568 31.5353L11.8769 31.216L14.5459 33.8788L14.5249 33.8997C13.8446 34.5791 13.8446 35.684 14.5249 36.3634L18.6983 40.5272C19.0283 40.8558 19.4665 41.0376 19.9333 41.0376C20.4 41.0376 20.8383 40.8564 21.1467 40.5475L21.1904 40.5086L23.8716 43.1836L23.5375 43.4891ZM24.7306 42.3974L22.0552 39.7282L22.824 39.0349L25.4947 41.6995L24.7306 42.3974ZM36.23 11.8224H43.2138V12.9837H36.23V11.8224ZM40.8858 14.1449H36.23V15.3062H40.8858V14.1449ZM42.0493 14.1449H43.2133V15.3062H42.0493V14.1449ZM27.4998 11.2417C19.8956 11.2417 13.3453 16.4896 11.6425 23.8098L10.5396 21.9755L9.5415 22.573L11.5872 25.9738L14.9958 23.9329L14.397 22.9371L12.8198 23.8812C14.4692 17.1846 20.5049 12.403 27.4998 12.403C29.0286 12.403 30.5371 12.6294 31.9833 13.0765L32.3279 11.9675C30.7699 11.4856 29.1456 11.2417 27.4998 11.2417ZM41.8497 20.3154L45.2583 22.3564L44.6595 23.3522L42.949 22.3285C43.5083 23.9892 43.7952 25.7236 43.7952 27.4998C43.7952 31.2182 42.5044 34.8542 40.1602 37.7365L39.2563 37.0049C41.4324 34.3287 42.6313 30.9528 42.6313 27.4998C42.6313 25.8223 42.3572 24.1854 41.8211 22.6206L40.8027 24.3143L39.8046 23.7168L41.8497 20.3154Z" fill="#D69026"/>
</svg>
